<svg xmlns="http://www.w3.org/2000/svg" viewBox="0 0 173.81 164.24"><defs><style>.cls-1{fill:none;stroke:#000;stroke-miterlimit:10;stroke-width:5px;}</style></defs><g id="レイヤー_2" data-name="レイヤー 2"><g id="レイヤー_1-2" data-name="レイヤー 1"><rect class="cls-1" x="4.94" y="3.82" width="14.34" height="43.02"/><polyline class="cls-1" points="25.01 3.82 47.95 3.82 32.66 20.02 46.04 20.02 30.75 36.33 46.04 34.72"/><polyline class="cls-1" points="55.6 3.82 82.37 3.82 70.89 43.97"/><line class="cls-1" x1="68.98" y1="3.82" x2="51.78" y2="46.04"/><line class="cls-1" x1="2.07" y1="55.44" x2="80.45" y2="55.44"/><line class="cls-1" x1="34.57" y1="55.44" x2="2.07" y2="103.24"/><line class="cls-1" x1="49.86" y1="55.44" x2="80.45" y2="103.24"/><line class="cls-1" x1="88.1" y1="9.56" x2="172.22" y2="9.56"/><line class="cls-1" x1="112.96" x2="112.96" y2="22.94"/><line class="cls-1" x1="147.37" x2="147.37" y2="22.94"/><polyline class="cls-1" points="88.1 51.62 130.16 17.21 172.22 51.62"/><line class="cls-1" x1="99.57" y1="55.44" x2="158.84" y2="55.44"/><circle class="cls-1" cx="158.36" cy="79.82" r="10.04"/><circle class="cls-1" cx="99.09" cy="79.82" r="10.04"/><circle class="cls-1" cx="41.74" cy="79.82" r="10.04"/><polyline class="cls-1" points="15.45 131.92 67.07 131.92 67.07 97.51 15.45 97.51 15.45 160.6 40.3 151.04"/><line class="cls-1" x1="21.19" y1="114.71" x2="61.34" y2="114.71"/><line class="cls-1" x1="40.78" y1="138.61" x2="77.35" y2="161.79"/><polyline class="cls-1" points="90.01 122.36 90.01 97.51 168.4 97.51 168.4 122.36"/><rect class="cls-1" x="105.31" y="110.89" width="45.88" height="19.12"/><line class="cls-1" x1="95.75" y1="145.3" x2="162.66" y2="145.3"/><line class="cls-1" x1="128.25" y1="135.74" x2="128.25" y2="160.6"/><line class="cls-1" x1="90.01" y1="160.6" x2="168.4" y2="160.6"/><line class="cls-1" x1="41.26" y1="44.93" x2="41.26" y2="54.49"/><line class="cls-1" x1="129.21" y1="29.63" x2="129.21" y2="86.99"/><line class="cls-1" x1="62.29" y1="151.04" x2="79.5" y2="143.39"/></g></g></svg>